<?xml version="1.0" standalone="no"?>
<!DOCTYPE svg PUBLIC "-//W3C//DTD SVG 20010904//EN"
 "http://www.w3.org/TR/2001/REC-SVG-20010904/DTD/svg10.dtd">
<svg version="1.0" xmlns="http://www.w3.org/2000/svg"
 width="700.000000pt" height="700.000000pt" viewBox="0 0 700.000000 700.000000"
 preserveAspectRatio="xMidYMid meet">
<metadata>
Created by potrace 1.11, written by Peter Selinger 2001-2013
</metadata>
<g transform="translate(0.000000,700.000000) scale(0.100000,-0.100000)"
fill="#000000" stroke="none">
<path d="M3347 6984 c-1 -1 -51 -5 -110 -9 -60 -3 -118 -9 -130 -11 -12 -2
-40 -6 -62 -8 -22 -2 -67 -9 -100 -15 -33 -6 -78 -13 -100 -17 -72 -10 -287
-65 -400 -101 -812 -260 -1493 -800 -1936 -1533 -96 -160 -152 -273 -259 -525
-14 -35 -34 -90 -36 -100 -1 -5 -16 -50 -32 -100 -28 -83 -83 -289 -97 -360
-19 -104 -36 -204 -40 -244 -3 -25 -7 -55 -9 -66 -24 -120 -25 -665 0 -783 2
-12 7 -44 10 -70 45 -418 222 -929 459 -1326 58 -98 199 -305 245 -359 210
-253 366 -412 545 -556 39 -31 72 -58 75 -61 19 -21 255 -181 350 -238 227
-135 605 -301 780 -342 19 -5 87 -23 150 -39 112 -30 285 -64 392 -77 29 -3
64 -7 78 -9 165 -24 639 -23 762 0 13 3 43 7 68 9 174 18 426 75 650 148 356
116 766 336 1044 560 54 43 165 136 180 150 410 382 673 749 876 1218 98 226
196 544 225 730 3 19 8 46 10 60 13 61 15 78 21 140 3 36 8 68 10 71 7 13 18
255 17 404 -1 173 -9 299 -28 440 -14 100 -18 123 -21 140 -2 11 -7 36 -10 55
-11 64 -74 311 -101 394 -191 598 -532 1123 -1004 1547 -144 129 -233 197
-426 324 -114 75 -142 92 -306 178 -188 98 -529 231 -672 261 -11 3 -56 14
-100 25 -150 38 -375 73 -554 87 -77 6 -409 12 -414 8z"/>
</g>
</svg>
